<?xml version="1.0" encoding="utf-8"?>
<!-- Generator: Adobe Illustrator 28.1.0, SVG Export Plug-In . SVG Version: 6.00 Build 0)  -->
<svg version="1.1" id="Layer_1" xmlns="http://www.w3.org/2000/svg" xmlns:xlink="http://www.w3.org/1999/xlink" x="0px" y="0px"
	 viewBox="0 0 522 118" style="enable-background:new 0 0 522 118;" xml:space="preserve">
<style type="text/css">
	.st0{fill:#FFFFFF;}
	.st1{fill:#EE1B23;}
</style>
<g>
	<path class="st0" d="M128.2,73.3V39.1h16.7c4.3,0,7.5,0.8,9.7,2.4c2.2,1.6,3.2,3.8,3.2,6.5c0,1.8-0.4,3.3-1.3,4.7
		c-0.9,1.3-2.1,2.3-3.6,3.1c-1.5,0.7-3.3,1.1-5.3,1.1l0.9-2.1c2.1,0,4,0.4,5.7,1.1c1.6,0.7,2.9,1.8,3.9,3.1c0.9,1.4,1.4,3,1.4,5
		c0,2.9-1.2,5.2-3.5,6.9c-2.3,1.6-5.7,2.5-10.2,2.5H128.2z M136.1,67.3h9.3c2,0,3.6-0.3,4.6-1c1.1-0.7,1.6-1.7,1.6-3.2
		c0-1.5-0.5-2.5-1.6-3.2c-1.1-0.7-2.6-1-4.6-1h-9.9v-5.8h8.5c1.9,0,3.4-0.3,4.4-1c1-0.7,1.5-1.7,1.5-3.1c0-1.4-0.5-2.4-1.5-3
		c-1-0.7-2.5-1-4.4-1h-7.9V67.3z"/>
	<path class="st0" d="M182.2,73.9c-2.7,0-5.2-0.4-7.5-1.3c-2.3-0.9-4.3-2.1-6-3.7c-1.7-1.6-3-3.5-3.9-5.6c-0.9-2.2-1.4-4.5-1.4-7
		c0-2.6,0.5-4.9,1.4-7.1c0.9-2.1,2.2-4,3.9-5.6c1.7-1.6,3.7-2.8,5.9-3.7c2.3-0.9,4.7-1.3,7.5-1.3s5.2,0.4,7.5,1.3
		c2.3,0.9,4.2,2.1,5.9,3.7c1.7,1.6,3,3.5,3.9,5.6c0.9,2.1,1.4,4.5,1.4,7.1c0,2.5-0.5,4.9-1.4,7.1c-0.9,2.2-2.2,4-3.9,5.6
		c-1.7,1.6-3.7,2.8-5.9,3.7C187.4,73.5,184.9,73.9,182.2,73.9z M182.2,67.2c1.5,0,2.9-0.3,4.2-0.8c1.3-0.5,2.4-1.3,3.4-2.3
		c1-1,1.7-2.2,2.3-3.5c0.5-1.3,0.8-2.8,0.8-4.4c0-1.6-0.3-3.1-0.8-4.4s-1.3-2.5-2.3-3.5c-1-1-2.1-1.8-3.4-2.3
		c-1.3-0.5-2.7-0.8-4.2-0.8s-2.9,0.3-4.3,0.8c-1.3,0.5-2.4,1.3-3.4,2.3c-1,1-1.7,2.2-2.2,3.5s-0.8,2.8-0.8,4.4
		c0,1.6,0.3,3.1,0.8,4.4c0.5,1.3,1.3,2.5,2.2,3.5c1,1,2.1,1.8,3.4,2.3C179.2,66.9,180.6,67.2,182.2,67.2z"/>
	<path class="st0" d="M223.5,73.9c-2.7,0-5.2-0.4-7.5-1.3c-2.3-0.9-4.3-2.1-6-3.7c-1.7-1.6-3-3.5-3.9-5.6c-0.9-2.2-1.4-4.5-1.4-7
		c0-2.6,0.5-4.9,1.4-7.1c0.9-2.1,2.2-4,3.9-5.6c1.7-1.6,3.7-2.8,5.9-3.7c2.3-0.9,4.7-1.3,7.5-1.3s5.2,0.4,7.5,1.3
		c2.3,0.9,4.2,2.1,5.9,3.7c1.7,1.6,3,3.5,3.9,5.6c0.9,2.1,1.4,4.5,1.4,7.1c0,2.5-0.5,4.9-1.4,7.1c-0.9,2.2-2.2,4-3.9,5.6
		c-1.7,1.6-3.7,2.8-5.9,3.7C228.6,73.5,226.1,73.9,223.5,73.9z M223.4,67.2c1.5,0,2.9-0.3,4.2-0.8c1.3-0.5,2.4-1.3,3.4-2.3
		c1-1,1.7-2.2,2.3-3.5c0.5-1.3,0.8-2.8,0.8-4.4c0-1.6-0.3-3.1-0.8-4.4s-1.3-2.5-2.3-3.5c-1-1-2.1-1.8-3.4-2.3
		c-1.3-0.5-2.7-0.8-4.2-0.8s-2.9,0.3-4.3,0.8c-1.3,0.5-2.4,1.3-3.4,2.3c-1,1-1.7,2.2-2.2,3.5s-0.8,2.8-0.8,4.4
		c0,1.6,0.3,3.1,0.8,4.4c0.5,1.3,1.3,2.5,2.2,3.5c1,1,2.1,1.8,3.4,2.3C220.5,66.9,221.9,67.2,223.4,67.2z"/>
	<path class="st0" d="M248.1,73.3V39.1h7.9v34.2H248.1z M255.1,65.5l-0.4-9.1l16.4-17.3h8.8L265.2,55l-4.5,4.7L255.1,65.5z
		 M271.5,73.3l-12.2-14.9l5.2-5.7l16.3,20.5H271.5z"/>
	<path class="st0" d="M298.1,73.3V39.1h8v27.8h17.1v6.5H298.1z"/>
	<path class="st0" d="M327.6,73.3V39.1h8v34.2H327.6z"/>
	<path class="st0" d="M343.6,73.3V39.1h16.7c4.3,0,7.5,0.8,9.7,2.4c2.2,1.6,3.2,3.8,3.2,6.5c0,1.8-0.4,3.3-1.3,4.7
		c-0.9,1.3-2.1,2.3-3.6,3.1c-1.5,0.7-3.3,1.1-5.3,1.1l0.9-2.1c2.2,0,4,0.4,5.7,1.1c1.6,0.7,2.9,1.8,3.9,3.1s1.4,3,1.4,5
		c0,2.9-1.2,5.2-3.5,6.9c-2.3,1.6-5.7,2.5-10.2,2.5H343.6z M351.5,67.3h9.3c2,0,3.6-0.3,4.6-1c1.1-0.7,1.6-1.7,1.6-3.2
		c0-1.5-0.5-2.5-1.6-3.2c-1.1-0.7-2.6-1-4.6-1h-9.9v-5.8h8.5c1.9,0,3.4-0.3,4.4-1c1-0.7,1.5-1.7,1.5-3.1c0-1.4-0.5-2.4-1.5-3
		c-1-0.7-2.5-1-4.4-1h-7.9V67.3z"/>
	<path class="st0" d="M381,73.3V39.1h14.8c3.1,0,5.7,0.5,7.9,1.5c2.2,1,3.9,2.4,5.1,4.3c1.2,1.9,1.8,4.1,1.8,6.6
		c0,2.6-0.6,4.8-1.8,6.6c-1.2,1.8-2.9,3.2-5.1,4.2s-4.9,1.4-7.9,1.4h-10.5l3.6-3.4v13H381z M389,61.2l-3.6-3.8h10
		c2.4,0,4.2-0.5,5.5-1.6c1.2-1,1.9-2.5,1.9-4.4c0-1.9-0.6-3.3-1.9-4.4c-1.2-1-3.1-1.5-5.5-1.5h-10l3.6-3.8V61.2z M402.8,73.3
		l-8.6-12.4h8.5l8.6,12.4H402.8z"/>
	<path class="st0" d="M412.4,73.3l15.2-34.2h7.8l15.3,34.2h-8.3l-12.6-30.2h3.2l-12.6,30.2H412.4z M420.1,66l2-6h17.7l2.1,6H420.1z"
		/>
	<path class="st0" d="M454.4,73.3V39.1h14.8c3.1,0,5.7,0.5,7.9,1.5c2.2,1,3.9,2.4,5.1,4.3c1.2,1.9,1.8,4.1,1.8,6.6
		c0,2.6-0.6,4.8-1.8,6.6c-1.2,1.8-2.9,3.2-5.1,4.2s-4.9,1.4-7.9,1.4h-10.5l3.6-3.4v13H454.4z M462.3,61.2l-3.6-3.8h10
		c2.4,0,4.2-0.5,5.5-1.6c1.2-1,1.9-2.5,1.9-4.4c0-1.9-0.6-3.3-1.9-4.4c-1.2-1-3.1-1.5-5.5-1.5h-10l3.6-3.8V61.2z M476.2,73.3
		l-8.6-12.4h8.5l8.6,12.4H476.2z"/>
	<path class="st0" d="M498.3,73.3v-14l1.8,4.8l-15.1-25h8.5L505,58.3h-4.8l11.6-19.2h7.7l-15,25l1.8-4.8v14H498.3z"/>
</g>
<path class="st1" d="M11.8,118c-3.2,0-6-1.2-8.3-3.5c-2.3-2.3-3.5-5.1-3.5-8.3V11.8c0-3.2,1.2-6,3.5-8.3S8.6,0,11.8,0h70.8
	c3.2,0,6,1.2,8.3,3.5c2.3,2.3,3.5,5.1,3.5,8.3v94.4c0,3.2-1.2,6-3.5,8.3c-2.3,2.3-5.1,3.5-8.3,3.5H11.8z M11.8,106.2h70.8V11.8H70.8
	v41.3L56,44.2l-14.8,8.8V11.8H11.8V106.2z M11.8,106.2V11.8V106.2z M41.3,53.1L56,44.2l14.8,8.8L56,44.2L41.3,53.1z"/>
</svg>
