<?xml version="1.0" encoding="utf-8"?>
<!-- Generator: Adobe Illustrator 26.1.0, SVG Export Plug-In . SVG Version: 6.00 Build 0)  -->
<svg version="1.1" id="Layer_1" xmlns="http://www.w3.org/2000/svg" xmlns:xlink="http://www.w3.org/1999/xlink" x="0px" y="0px"
	 viewBox="0 0 1059.5 400.2" style="enable-background:new 0 0 1059.5 400.2;" xml:space="preserve">
<style type="text/css">
	.st0{fill:#FDC010;stroke:#000000;stroke-width:15.5087;stroke-miterlimit:10;}
	.st1{fill:#010101;}
	.st2{fill:#C2B08E;}
	.st3{fill:#2568B2;}
	.st4{fill:#FFFFFF;}
	.st5{fill:#EC2624;}
	.st6{fill:#394A9F;}
	.st7{fill:none;}
	.st8{stroke:#000000;stroke-width:26.9988;stroke-miterlimit:10;}
	.st9{fill:#E5262B;}
</style>
<rect x="15.7" y="80.9" class="st0" width="1024.1" height="304.9"/>
<path d="M335.9,277.5"/>
<g>
	<path class="st1" d="M253.1,71.3c0.3,0,0.6,0,0.9-0.1c4.1-1,8.2-1.4,12.3-1.8c6.8-0.6,13.7-0.7,20.5-0.5c6.4,0.1,12.7,0.8,19,1.8
		c6,0.9,11.9,2.1,17.7,3.9c2.2,0.7,4.3,1.5,6.4,2.4c6.8,2.8,11.5,7.8,14.4,14.5c3.6,8.5,4.2,17.1,1.4,26c-1.2,3.7-2.7,7.3-4.5,10.7
		c-5.1,9.5-11.7,17.8-19.5,25.2c-11.8,11.2-24.8,21-38.6,29.6c-1.8,1.1-3.6,2.3-5.5,3.3c-1.6,0.9-3.3,1.7-5,2.6
		c-0.4,0.2-0.7,0.4-1.1,0.6c-0.4,3.2-0.4,6.3-1.4,9.4c0.3,0.3,0.5,0.6,0.8,0.9c3.4,3.2,6.5,6.6,9.4,10.2
		c5.5,6.6,10.9,13.3,16.4,19.9c8.1,9.9,15.3,20.4,21.7,31.5c1.9,3.3,3.5,6.7,4.7,10.2c0.2,0.7,0.5,1.4,0.8,2
		c0.2,0.1,0.4,0.1,0.5,0.1c4.9-0.2,9.8,0.4,14.7,0.9c10.2,1,20.2,2.7,30.3,4.2c19.8,3.1,39.2,7.8,58.2,14.2c2.5,0.8,5,1.5,7.5,2.4
		c3.5,1.2,6.9,2.6,9.8,5c1,0.9,2.2,1.4,3.6,1.5c3.4,0.2,6.5,1.5,9.4,3.2c2.3,1.4,4.6,2.8,6.9,4.2c1.2,0.8,2.4,1.7,3.6,2.6
		c6.5,4.9,11.1,11.2,14.3,18.6c2.9,6.7,4.7,13.7,5.5,20.9c0.7,6.8,1.3,13.6,1.4,20.5c0,0.9,0.1,1.8,0,2.6c-0.2,2.2-1.2,4-2.9,5.4
		c-0.4,0.3-0.9,0.5-1.5,0.9c-0.3-0.5-0.5-0.9-0.7-1.3c-0.2,0.1-0.3,0.2-0.5,0.4c-1.2,1-143.7,2.2-164.5,2.5
		c-16.1,0.2-32.2,0.6-48.3,1c-9.5,0.2-19.1,0.3-28.6,0.5c-10.3,0.2-20.6,0.3-30.8,0.6c-8.3,0.2-16.5,0.6-24.7,1
		c-13.3,0.6-26.7,1-40.1,0.4c-8-0.4-16.1-0.8-24.1-1.4c-18.3-1.4-36.6-2.3-54.9-2.1c-1.1,0-2.3,0.1-3.4,0.4
		c-2.9,0.8-5.8,1.2-8.7,1.2c-3.9,0-7.8,0.1-11.7,0.2c-5.5,0.1-8.9,0.4-14-1.5c-2-0.7-6,0.2-7.7-1.1c-4.1-3.1-5.6-0.4-5.9-5.5
		c-0.2-3.5,0.5-17,1.5-20.2c1.3-4.5,3.2-8.7,5.3-12.8c5.4-10.2,12-19.6,20.2-27.7s17.8-14.2,28.5-18.5c2-0.8,4-1.5,6.2-1.6
		c0.3,0,0.6-0.1,0.9-0.2c-2.2-7.9-0.8-17.9,1.8-23.6c1.1-2.5,2.3-4.8,4-7c1.6-2,3.2-4,5-5.8c3.9-4,8.2-7.5,12.8-10.7
		c2.6-1.8,5.3-3.5,7.9-5.2c0.2-0.1,0.3-0.3,0.4-0.4c-0.6-2-1.3-3.9-1.7-5.8c-1.4-5.9-2.4-11.8-3.3-17.8c-1.3-8.2-2.6-16.3-3.8-24.5
		c-0.1-0.7-0.2-1.5-0.3-2.2c-0.1-0.4-0.3-0.9-0.4-1.3c-0.5,0-0.9,0-1.3,0c-2.8,0.1-5.6,0.1-8.4,0.2c-6.7,0.2-13.3-0.4-19.9-1.4
		c-10.2-1.5-20.2-3.8-30-6.7c-4.6-1.3-9.1-3-13.5-4.7c-2.3-0.9-3-2.7-3.6-4.7c-0.3-0.9,0.1-1.8,0.6-2.5c0.6-0.8,1.2-1.7,1.9-2.3
		c1.3-1.2,2.7-2.4,4.2-3.5c4-3,8.2-5.8,12.5-8.4c3.4-2.1,6.8-4.3,10.2-6.4c12.3-7.5,25-14.4,38.2-20.4c1.4-0.6,2.6-1.4,3.6-2.5
		c0.6-0.6,1.1-1.4,1.1-2.3c0-3.1,0.6-6.1,0.9-9.2c0.6-5.7,0.9-11.5,0.6-17.3c-0.3-6.3-0.6-12.6-0.9-18.9c-0.2-3.9,0-7.8,0.5-11.6
		c0.5-3.5,1.6-6.8,3.2-9.9c1.4-2.7,2.8-5.3,4.3-8c0.6-1,0.9-2.1,1.1-3.2c0.4-2.8,0.4-5.6,0.2-8.4c-0.1-1.5-0.2-2.9-0.2-4.4
		c0-2.2,0.8-4.1,2.2-5.7c1.5-1.7,3.2-3,5.3-3.9c1.4-0.6,2.7-1.2,4-1.9c4.1-2.1,8.4-3.5,12.9-4.5c7.9-1.8,15.8-2.9,23.9-3.1
		c5.5-0.1,11,0.3,16.4,1.2c13,2.1,25.3,6.5,37.1,12.5c5.9,3,11.7,6.1,17.4,9.2c5.2,2.8,10.1,6.2,14.2,10.5
		c4.7,4.8,8.3,10.4,11.2,16.4c0.8,1.6,1.3,3.4,1.6,5.2C252.9,70.4,253,70.8,253.1,71.3z M257.7,273.2c-0.6,0-0.8,0.6-1.1,1
		c-7,9.3-14.8,17.9-23,26.1c-3.3,3.3-6.8,6.5-10.4,9.5c-5.3,4.4-10.9,8.5-17,11.9c-5.3,3-10.8,5.4-16.7,6.9c-3,0.7-6,1.3-9.1,1.9
		c-0.3,0.1-0.5,0.1-0.8,0.2s-0.7,0-0.8,0.6c0.5,0.4,1,0.8,1.6,1.1c2.5,1.6,4.9,3.3,7.5,4.7c2.7,1.5,5.2,3.3,7.8,5
		c9.5,5.7,19.2,11,29.3,15.6c1.6,0.7,3.2,1.4,4.8,2c0.7,0.3,1.6,0.4,2.3,0.5c1.1,0.1,1.8-0.4,2.1-1.5c0.2-0.7,0.3-1.4,0.4-2.2
		c0.1-2.7,0.3-5.4,0.4-8c0.1-7.5,0.2-15,0.3-22.5c0-0.1-0.1-0.1-0.1-0.2c-0.2,0.1-0.5,0.1-0.7,0.2c-3.2,1.7-6.6,2.7-10,3.6
		c-1.1,0.3-2.2,0.6-3.1,1.4c-0.1,0.1-0.2,0-0.4,0.1c-0.2-0.4-0.4-0.9-0.6-1.4c0.5-0.2,1-0.3,1.4-0.5c0.5-0.3,0.9-0.6,1.3-1
		c4.4-4.4,9-8.5,13.8-12.3c0.7-0.5,1.1-1.1,1.4-1.9c0.7-1.6,1.3-3.2,2.1-4.8c5.9-11.4,11.2-23.2,16.8-34.8
		C257.5,273.9,257.6,273.5,257.7,273.2c0.3,0,0.4-0.3,0.2-0.4C257.6,272.6,257.6,273,257.7,273.2z M179.4,320.6
		c0.6,0,0.9,0.1,1.1,0.1c2.1-0.2,4.3-0.4,6.4-1c4.6-1.2,9-3.1,13.2-5.3c10.9-5.7,21.1-12.7,30.4-20.6c10.2-8.6,19.8-17.9,29.7-26.9
		c0.5-0.4,0.8-0.9,0.9-1.5c0.5-2.6,1-5.3,0.8-8c-0.2-3.8-0.6-7.5-0.8-11.2c-0.4-6.3-1.2-12.6,0.1-18.9c0.1-0.3,0.1-0.7-0.1-1
		c-2-3.4-4.1-6.8-7.5-9.1c-1.3-0.9-2.7-1.8-4-2.7c-1-0.6-2-1.2-2.9-1.8c-2.1-1.3-4-2.9-5.6-4.9c-0.5-0.7-1-1.4-1.4-2.2
		c-0.1-0.2-0.1-0.5-0.1-1.1c0.9,0.9,1.5,1.4,2,2.1c0.9,0.9,1.8,1.6,3.1,1.4c0.5-0.1,1.1,0.1,1.6,0.1c4.2,0.4,7.6-1,10.4-4.1
		c1.1-1.3,1.9-2.8,2.5-4.3c0.9-2.3,1.4-4.8,1.7-7.2c0.5-4,0.6-8,0.6-12.1c0-4-0.2-7.9-1.1-11.8c-0.5-2.1-1-4.2-2.1-6.1
		c-2-3.5-4.9-4.5-8.7-3c-0.7,0.3-1.4,0.6-2,1c-1.1,0.8-2.2,1.6-3.2,2.5c-1.8,1.6-3.2,3.4-4.5,5.4c-1.6,2.6-3.1,5.4-4.6,8
		c-0.2,0.4-0.5,0.8-0.8,1.2c-2.9-0.7-5.7-1.1-8.4-2.4c-0.1-0.2-0.2-0.4-0.3-0.6c-0.8-1.7-1.1-3.5-1.5-5.2c-0.1-0.4-0.3-0.8-0.4-1.2
		c-1.8,0-3.4,0-5,0c-1.3,0-2.7,0.1-4,0.3c-0.8,0.1-1.5,0.4-2.3,0.7c-0.6,0.2-1,0.6-1.2,1.2c-0.7,1.5-1.4,2.9-2.1,4.3
		c-1.1,2.1-2.4,4.1-4.1,5.7c-4.7,4.7-10.2,8.2-16.7,10.2c-5,1.5-10.1,1.9-15.3,2.1c-5.3,0.1-10.4-0.9-15.4-2.8
		c-5.7-2.2-10.9-5.1-16-8.4c-0.6-0.4-1.2-0.8-1.9-1.2s-1.1-0.4-1.6,0.2c-1.9,2.1-3,4.6-3.8,7.2c-0.1,0.2,0,0.4,0,0.6
		c-0.2,3.4-0.6,6.7-1.1,10c-0.4,2.1-0.7,4.2-1.1,6.4c-0.2,1.3-0.2,2.7,0,4c0.2,1.4,0.9,2.6,2.1,3.3c1,0.7,2.1,1.3,3.1,1.8
		s2.1,0.8,3.2,1.2c0.6,0.3,1.2,0.6,1.7,1c0.8,0.7,0.6,1.4-0.3,1.9c-1,0.5-2,0.5-3,0.3c-1.6-0.4-3.2-0.3-4.8-0.1
		c-1.3,0.1-2.7,0.2-4,0.2c-1.9-0.1-3.7-0.5-5.4-1.5c-2.6-1.6-3.9-3.8-3.8-6.8c0-1.6,0.5-3,1.1-4.5c0.7-1.6,1.6-3.1,2.6-4.5
		c0.3-0.4,0.7-0.6,0.6-1.1c-1.7-0.1-3.4-0.1-5-0.3c-1.7-0.2-3.3-0.5-5-0.7c-1.6-0.2-3-1.3-4.8-1.6c-0.1,2.3,0,4.4,0.3,6.5
		c0.6,5.5,1.7,11,3.3,16.4c1.2,4.1,2.2,8.2,2.9,12.3c0.2,1,0.4,2,0.7,2.9c1.9,6.2,3.3,12.6,4.2,19c0.1,0.3,0.2,0.7-0.2,1.1
		c-0.2-0.4-0.4-0.7-0.6-1.1c-0.8-2.2-1.6-4.4-2.5-6.6c-0.1-0.3,0-0.9-0.6-0.9c-0.1,0.2-0.1,0.4-0.1,0.6c-0.4,7.3-0.9,14.6-0.2,21.9
		c0.2,2.7,0.7,5.3,1,8c0.1,0.7,0.4,1.3,0.9,1.8c5.3,5.6,11.6,9.5,19.2,11.1c4.2,0.9,8.4,1.2,12.6,1.5c8.4,0.5,16.8,0.2,25.1-1
		c7.3-1.1,14.3-3.2,20.8-6.6c5.6-2.9,11.1-6,16.4-9.4c5.6-3.5,10.9-7.4,15.8-11.7c1.1-1,2-2.1,2.6-3.5c1.9-4.3,3.1-8.9,4-13.5
		c0.8-4.5,1.2-9,1.6-13.6c0-0.5,0.1-1.1,0.2-1.6c0-0.1,0.3-0.3,0.4-0.3c0.1,0,0.4,0.2,0.4,0.4c0.1,0.3,0.1,0.6,0.2,1
		c0.6,4.5,0.9,8.9,1.1,13.4c0.1,3.2,0.1,6.3-0.4,9.4c-0.6,4.7-2.2,9-5,12.8c-1.8,2.3-3.8,4.3-6.1,6.1c-1.9,1.5-3.9,2.9-5.9,4.3
		c-2.6,1.9-5.3,3.7-7.9,5.6c-5.6,4.1-10.1,9.1-13.5,15.3c-1.2,2.2-2.6,4.4-4,6.5c-3,4.4-6.8,8.1-11.3,11c-1.8,1.1-3.6,2.1-5.4,3.2
		C180.5,319.9,180.1,320.1,179.4,320.6z M40.3,167.1c1.6-0.3,2.9-0.6,4.2-0.9c10.4-2.5,20.8-5.3,31-8.5c12.2-3.8,24.3-7.7,36.6-11.1
		c13.7-3.8,27-8.4,40-14c13.1-5.7,26.2-11.4,39.3-17.2c11.5-5.1,22.8-10.4,34-16.2c8.8-4.6,17.4-9.6,25.3-15.6
		c1.4-1.1,2.8-2.3,4.2-3.4c0.2-0.1,0.4-0.3,0.1-0.7c-0.9,0.3-1.8,0.6-2.8,0.9c-8.4,2.6-16.9,5.2-25.4,7.9
		c-25.9,8.5-51.5,17.7-77.1,27c-12.6,4.6-25.1,9.5-37.4,14.9c-17.7,7.9-35.1,16.5-52.1,25.8c-6,3.3-12,6.6-18,9.9
		C41.7,166,41,166.2,40.3,167.1z M312.4,272.9c0,0.4,0,0.8,0,1.1c0.2,4.8,0.4,9.6,0.6,14.5c0,1.1,0,2.1,0,3.2c0,0.4,0.1,1-0.6,1.2
		c-0.4,0.1-0.6-0.2-0.9-0.9c-0.1-0.3-0.2-0.6-0.3-1c-0.6-2.3-1.1-4.7-1.6-7.1c-2.5-10.2-5.3-20.4-8.8-30.3c-0.5-1.5-1.2-2.8-2.1-4.1
		c-6.7-10.1-13.9-19.7-21.8-28.9c-2.7-3.2-5.7-6.3-8.5-9.4c-0.4-0.4-0.7-0.9-1.5-1.1c0.1,0.4,0.1,0.6,0.2,0.9
		c2.6,7,4.8,14.2,6.7,21.5c2.6,9.6,5,19.2,7.5,28.8c2.2,8.6,4.2,17.3,5.7,26.1c0.9,5.2,1.7,10.3,2.5,15.5c1.2,7.6,2.9,15.2,4.4,22.7
		c0.1,0.8,0.4,1.5,0.7,2.3c0.3,0.8,0.6,1.5,0.3,2.3c-0.1,0.2-0.2,0.5,0.3,0.7c0.2-0.1,0.4-0.3,0.6-0.4c6.8-5.6,14.2-10,22.1-13.8
		c2.8-1.4,5.8-2.4,9-2.9c0.5-0.1,1-0.3,1.5-0.5c-0.5-1.2-0.9-2.2-1.4-3.3c-1.6-3.6-3.3-7.2-4.9-10.8c-0.2-0.6-0.6-1.1-0.6-1.7
		c-0.1-1.6-0.6-3.1-1-4.7C319.1,285.7,316,279.3,312.4,272.9z M200.7,57c0,0.1-0.1,0.3-0.1,0.4c-1.9-0.1-3.7-0.3-5.6-0.3
		c-2.2-0.1-4.4-0.1-6.6-0.2c-0.5,0-0.9,0-1.3,0.4c-1.3,1.6-2.9,3-3.9,4.8c-2.7,4.7-2.9,9.7-0.2,14.6c1.2,2.1,2.6,4.1,4.2,5.9
		c2.8,2.9,5.6,5.8,8.3,8.6c2.5-0.4,31.1-9.4,38.5-12.1c0.4-0.2,0.8-0.4,1.5-0.7c-1.8-2.7-1.7-5.7-1.8-8.6c-1.1-0.7-2.2-1.3-3.6-1.6
		c0.2,1.2,0.3,2.1,0.4,3.1c0.1,1.1,0.3,2.3,0.3,3.4c0,1-0.3,1.9-1.3,2.6c-0.3-0.2-0.5-0.4-0.6-0.6c-0.6-0.9-0.9-1.9-1-3
		c-0.1-2.3-0.3-4.5-0.4-6.8c-1.7-1.1-2.1-1.3-3.4-1.5c0.1,2.1,0.4,4.1,0.4,6.2c0,2-0.1,4.1-1.2,5.9c-0.6-0.1-0.7-0.4-0.8-0.7
		c-0.4-1.3-0.8-2.7-1.1-4.1c-0.5-2.5-0.5-4.9-0.4-7.4c0-0.5,0-1.1,0-1.6c-1.7-0.8-3.3-1.5-4.8-2.3c-1.6-0.8-3.1-1.6-4.3-2.9
		c0.3-0.6,0.8-0.5,1.3-0.5c2.9,0.2,5.7,1,8.4,2c6,2.1,12,4.4,17.9,6.6c0.4,0.1,0.8,0.6,1.2,0.2c0-0.1,0-0.2,0-0.3
		c-0.1-0.2-0.2-0.5-0.3-0.7c-2.4-4.6-5.6-8.6-9.5-12.1c-3.7-3.3-7.9-6-12.3-8.4c-5.5-3-11.2-5.5-16.9-8.1c-0.2-0.1-0.5-0.1-0.7-0.1
		c-0.1,0.1-0.1,0.2-0.1,0.3c0,0.3-0.1,0.5,0,0.8c0.1,3.1-0.9,5.8-2.7,8.2c-1.2,1.7-2.7,3.2-4.2,4.6c-0.5,0.4-1,0.9-1.5,1.4
		c1.2,1.1,2.6,1.7,4,2.4C197.8,55.8,199.4,56.2,200.7,57z M220.3,149.6c-0.5-0.2-0.8-0.3-1.1-0.5c-0.4-0.1-0.8-0.2-1.1-0.4
		c-0.8-0.4-0.9-0.9-0.2-1.5c0.4-0.4,0.9-0.8,1.4-1.2c-1.1-0.4-2.1-0.4-3-1.1c-0.8-0.6-1.9-0.6-2.4-1.6c0.1-0.9,1-1.1,1.2-1.6
		c0.3-0.6,0.4-1.2,0.5-1.8c-4.2-1.9-4.2-1.9-4.8-2.8c0.1-0.7,1.1-0.8,1.2-1.5c-1-0.6-2.2-0.4-3-1.4c0.4-0.2,0.7-0.4,1-0.5
		c0.4-0.1,0.9-0.1,1.2-0.6c-0.7-0.1-1.2-0.1-1.7-0.2c-0.6-0.1-1.2,0-1.7-0.7c1-1.2,2.7-1.1,4-2c-0.5-0.2-0.9-0.4-1.3-0.5
		c-3.2-0.8-6.4-1.4-9.6-2.2c-4.8-1.2-9.6-2.4-14.4-3.6c-0.6-0.2-1.2-0.2-1.7,0.2c-0.2,0.1-0.5,0.3-0.7,0.4
		c-7.1,4.2-14.5,7.6-22.1,10.6c-13.9,5.5-27.7,10.9-41.6,16.3c-0.4,0.2-0.8,0.4-1.3,0.6c0.4,0.2,0.6,0.3,0.9,0.4
		c5.1,1.6,10.2,2.8,15.6,2.9c5,0.1,9.6-1,13.8-3.6c1.4-0.9,2.8-1.8,4.2-2.8c2.1-1.5,4.2-3.1,6.3-4.7c3.4-2.5,6.9-4.6,10.7-6.3
		c3.6-1.6,7.3-2.8,11.2-3.1c3-0.3,6-0.3,9,0.4c3.6,0.8,6.7,2.6,9.6,5c0.7,0.6,1.4,1.1,2,1.6c1,0.9,2.1,1.7,3,2.7
		c3,3.3,5,7.3,6.3,11.6c0.5,1.7,0.8,3.4,1.1,5.1c0.1,0.7,0.4,1.1,1.1,1.3c0.6,0.2,1.3,0.4,2,0.4c1.5,0,3-0.1,4.4-0.1
		c0.2,0,0.5-0.1,0.8-0.1c-0.7-1.1-0.7-1.1-0.4-2c-0.3-0.3-0.5-0.6-0.8-0.9c0.2-0.3,0.4-0.5,0.6-0.7c0.3-0.3,0.9-0.5,0.9-1
		c-0.1-0.7-0.7-0.7-1.2-0.8c-0.6-0.1-1.2-0.3-1.7-0.5c-0.2-0.1-0.4-0.3-0.6-0.4c0.1-1.1,1.3-1.1,1.7-1.8c-0.2-0.5-0.3-1.1,0.4-1.3
		c0.2-0.1,0.4-0.2,0.7-0.4c-0.5-0.7-1.6-0.6-1.6-1.6C218.9,150.7,219.5,150.2,220.3,149.6z M158,52c0.9-1.2,1.8-2.2,2.6-3.2
		c1.3-1.7,2.6-3.5,3.5-5.4c2.4-5,4.3-10.3,5.5-15.7c0.1-0.4,0.1-0.8,0.1-1.2c-0.4-0.1-0.6-0.2-0.9-0.2c-2.8-0.2-5.6-0.5-8.4-0.7
		c-3.5-0.2-7-0.5-10.4,0.2c-4.9,0.9-9.7,2-14.6,3c-0.2,0-0.3,0.2-0.6,0.3c0.1,0.4,0.2,0.8,0.4,1.1c1.9,4.9,4.7,9.4,7.6,13.7
		c0.9,1.3,2,2.6,3.1,3.7c1,0.9,2.1,1.7,3.2,2.3C151.8,51.2,154.8,51.8,158,52z M105.7,259.6c-0.4,0.2-0.6,0.2-0.7,0.3
		c-3.2,3-6.3,6-8.9,9.6c-2,2.7-3.5,5.6-4.3,8.8c-1.4,5.3-2.1,10.6-1.5,16.1c0.1,0.7,0.1,1.5,0.1,2.2c0.3,3.7,0.5,7.4,1,11
		c0.5,4.2,1.3,8.4,1.9,12.5c0,0.3,0.1,0.5,0.5,0.4c0.9-2.2,1.8-4.5,2.7-6.7c0.3-0.7,0.3-1.3,0.2-2c-0.7-5.9-0.8-11.8-0.2-17.7
		c0.1-1.4,0.4-2.8,0.6-4.2c0.7,2.7,0.5,5.5,0.8,8.2s0.3,5.4,1.2,8.4c0.3-0.6,0.4-0.9,0.6-1.2c0.6-1.6,1.2-3.3,1.7-4.9
		c0.9-2.8,1.7-5.6,1.9-8.6c0.1-1.3,0.3-2.7,0.4-4c0.5-5,0.9-10,1.3-15c0.3-4,0.5-7.9,0.8-11.8C105.7,260.6,105.7,260.2,105.7,259.6z
		 M168.4,333.9c-4.7,0.4-8.9,1.9-12.4,5.1c-1,0.9-1.7,1.9-2.3,3.1c-1.3,2.8-1.6,5.7-1.2,8.6c0.1,0.5,0.2,0.9,0.4,1.3
		c0.6,1.6,1.7,2.6,3.3,2.9c1.1,0.2,2.3,0.3,3.4,0.2c3.3-0.2,6.5-0.9,9.6-2.1c0.4-0.1,0.9-0.4,1.3-0.6c2.8-1.8,5.4-3.7,7.9-5.8
		c0.4-0.4,0.8-0.7,1.1-1.1c1.7-2,1.8-3.2,0-5.1c-1.9-2-4-3.7-6.4-5.2C171.8,334.4,170.2,333.9,168.4,333.9z M430.2,310.6
		c0-0.1,0.1-0.3,0.1-0.4c-3-2-6-4-9.1-5.9c-4.8-2.9-9.8-5.3-15.1-7.1c-4.1-1.4-8.3-2.7-12.5-3.9c-7.2-2.1-14.6-3.6-22-5
		c-7.1-1.3-14.1-2.5-21.3-2.9c-5.2-0.3-10.3-0.1-15.5,0.6c-0.2,0-0.6-0.1-0.6,0.6c4.1,0.6,8.2,1.1,12.3,1.8c4,0.7,8.1,1.4,12.1,2.1
		c4.1,0.8,8.2,1.6,12.2,2.5s8,1.8,12,2.7c4,1,8.1,2,12.1,3.1s8,2.3,12,3.6c3.9,1.2,7.8,2.6,11.6,4
		C422.4,307.8,426.3,309.2,430.2,310.6z M469.3,344.8c-0.1-2.9-1.6-8-3-10.4c-1.8-2.9-4-5.5-6.7-7.7c-1.8-1.5-3.7-2.6-5.9-3.4
		c-1-0.4-2.1-0.6-3.1-0.9c-0.9-0.2-1.9-0.2-2.8,0.2c-0.8,0.3-1.2,0.9-1.2,1.7c0,0.7,0.1,1.3,0.4,2c0.6,1.5,1.2,3,1.9,4.4
		c2.4,4.5,4.5,9.2,5.4,14.2c0.1,0.5,0.2,0.9,0.4,1.3c0.2,0.6,0.5,1.2,0.8,1.8c1.1,2,2.8,3,5,3c2.1,0,4.1-0.5,6-1.6
		C468.5,348.4,469.5,346.8,469.3,344.8z M174.5,377.2c-0.6-3.3-1.2-6.4-1.9-9.6c-0.6-2.6-1.4-5.2-2.4-7.7c-0.2-0.4-0.5-0.8-0.7-1.1
		c-1.7,0.7-3.2,1.2-4.9,1.5c-2.1,0.3-4.3,0.3-6.4,0.1c-0.9-0.1-1.7-0.1-2.6-0.1c-1.3-0.1-2.3,0.6-2.9,1.8c-0.4,0.9-0.9,1.8-1.2,2.8
		c-1.1,3.7-2.2,7.3-3.3,11c-0.1,0.2,0,0.5-0.1,0.9c4.4,0,8.8,0,13.1,0.1C165.5,376.8,169.9,377,174.5,377.2z M149.3,312.1
		c-4.8,12.2-8.9,24.4-12.1,36.9c0.2,0,0.3,0.1,0.3,0c8.4-6.9,16.3-14.4,25.4-20.4c0.1,0,0.1-0.1,0.1-0.1c0-0.1,0-0.1,0-0.3
		c-0.2-0.2-0.4-0.4-0.6-0.7c-2.1-2-3.9-4.2-5.7-6.5c-2-2.6-4.1-5.1-6.2-7.7C150.2,313,149.8,312.6,149.3,312.1z M236.3,152.7
		c1-0.4,1.6-0.6,2.3-0.8c0.5-0.2,1-0.4,1.4-0.7c0.6-0.3,0.6-0.9,0-1.2c-1-0.5-2-0.9-2.9-1.3c-0.1,0-0.1-0.1-0.2-0.2
		c0.3-0.4,1-0.2,1-1c-1.2-0.9-2.8-0.6-4.2-1.5c0.9-0.2,1.6-0.3,2.3-0.5c1.3-0.3,2.6-0.5,3.9-0.8c0.3-0.1,0.5-0.2,0.7-0.3
		c0.1-0.1,0.1-0.4,0-0.5c-0.2-0.2-0.4-0.3-0.7-0.4c-1.7-0.4-3.4-0.8-5.1-1.2c-0.2-0.1-0.6,0-0.6-0.6c0.6-0.1,1.2-0.2,1.9-0.4
		c0.2-0.1,0.4-0.3,0.7-0.6c-1.3-0.8-2.7-0.9-3.9-1.6c0.9-0.7,2.1-0.2,3.2-0.8c-0.6-0.7-1.3-0.8-2-1c-0.7-0.3-1.6-0.3-2.3-1
		c1.9-0.2,3.6-0.4,5.4-0.6c0.1,0,0.1-0.2,0.2-0.4c-0.5-0.2-0.9-0.4-1.4-0.6c-1.9-0.5-3.8-1-5.7-1.4c-3.3-0.9-6.6-1.1-10-0.7
		c-0.5,0.1-1.1-0.1-1.4,0.5c-0.2,0.4,0.2,0.8,1.1,1.2c0.5,0.2,1,0.4,1.5,0.6c0.6,0.2,1.2,0.5,2,0.8c-0.5,0.3-0.8,0.4-1.1,0.6
		c-0.5,0.3-0.5,0.9,0,1.1c0.8,0.4,1.6,0.8,2.4,1.2c-0.7,1-0.2,1.7,0.6,2.3c0.7,0.5,1.4,0.9,2.2,1.4c-0.6,0.7-1.7,0.9-2.1,1.8
		c0.1,1,1.2,0.9,1.5,1.6c-0.7,0.3-1.4,0.6-2,0.9c-0.5,0.2-0.5,0.9,0,1.1c0.2,0.1,0.5,0.3,0.7,0.4c1.4,0.6,2.9,1,4.5,0.9
		c0.6,0,1.3,0,2,0c0,0.5-0.4,0.5-0.7,0.7c-0.9,0.6-1.8,1.1-2.7,1.7c-0.2,0.1-0.3,0.5-0.5,0.9c0.6,0.2,1,0.3,1.5,0.4
		c0.4,0.1,0.8,0.1,1.2,0.2c0.4,0.1,0.9-0.1,1.4,0.4c-0.9,0.4-1.8,0.8-2.6,1.2c-0.3,0.1-0.4,0.4-0.7,0.6c0.6,0.7,1.4,0.6,2.1,0.7
		c1.1,0.2,2.1,0.3,3.2,0.4c1.4,0.1,2.6-0.6,3.6-1.5c0.3-0.3,0.3-0.8-0.1-1C237.6,153.3,237.1,153.1,236.3,152.7z M179,168
		c-1.3-6-0.8-5.1,0.9-9.5c-0.2-0.1-0.4-0.1-0.5-0.1c-2.5-0.1-5,0.3-7.4,0.9c-0.8,0.2-1.6,0.6-2.4,1c-1.4,0.7-2.2,1.9-2.4,3.5
		c-0.4,2.5,0.6,4.8,2.8,6.2c1.9,1.1,4,1.5,6.2,1.6c0.3,0,0.7,0,0.8-0.4c-0.3-0.7-0.6-1.4-0.8-2.1c-0.2-0.7-0.5-1.6,0.3-2.3
		C177.4,167.1,178.2,167.5,179,168z M44.5,337.1c0.3-0.2,0.7-0.4,1-0.7c0.6-0.6,1.1-1.2,1.6-1.8c2.1-2.4,4-4.8,6.2-7.1
		c3.3-3.4,6.7-6.7,10.1-10.1c0.3-0.3,0.6-0.6,1.1-1.1c-0.4-0.1-0.6-0.1-0.8-0.1c-3.2,0.6-6.2,1.5-9.1,3.2c-5.1,3-8.6,7.4-10.5,13
		c-0.4,1.1-0.6,2.3-0.5,3.5C43.7,336.4,43.8,336.9,44.5,337.1z M202.7,170.4c-0.9,0.3-1.4,0.9-2,0.2c-0.1-0.1-0.5-0.1-0.8-0.1
		c-1.3,0.1-2.7-0.1-4-0.4c-1.4,1.3-2.8,2.6-4.2,4c-0.4,0.3-0.6,0.8-0.4,1.3c0.3,0.7-0.3,1.1-0.4,1.7c0.2,0.2,0.4,0.4,0.6,0.5
		c-0.1,0.4-0.3,1-0.1,1.3c0.3,0.6,0,1-0.1,1.5c-0.1,0.4,0,0.9,0.1,1.3c-0.3,0.6-1.2,0.7-1.2,1.5c1.8,0,4.1-0.6,5.7-1.7
		c2.7-2,4.9-4.4,6.3-7.4c0.3-0.7,0.6-1.5,0.8-2.3C202.9,171.4,202.7,171,202.7,170.4z M120.9,168c-3.5,0.9-6.5,4-7.2,7.2
		c-0.1,0.6-0.2,1.2-0.1,1.8c0.1,1.1,0.6,2.1,1.4,2.8c1.4,1.3,4,2,6.1,1.8C117.5,176.2,118.4,172.5,120.9,168z M236.2,71.3
		c0.1,1.2,0.3,2.4,0.3,3.5c0.1,1.1-0.4,2.2-0.3,3.5c0.8-0.3,1.4-0.4,2-0.7c0.6-0.2,1.3-0.3,1.7-0.9c-0.2-1.4-0.5-2.8-0.7-4.2
		C238.3,72,237.5,71.4,236.2,71.3z M182.3,161.5c0,1.1,0.9,2,2.1,2c1.1,0,2.1-1,2.1-2.1c0-1.2-1.1-2.4-2.2-2.4
		C183.1,159.1,182.3,160.1,182.3,161.5z M125.4,171.9c0.8,0,1.5-0.5,1.6-1.2c0.1-0.9-0.5-1.6-1.3-1.7c-0.9-0.1-1.7,0.5-1.7,1.3
		C123.9,171.2,124.5,171.9,125.4,171.9z M242.2,73.8c0.1,0.8-0.1,1.4,0.4,2.2c0.6-0.2,1.2-0.5,1.7-0.7C244,73.9,244,73.9,242.2,73.8
		z M332.9,323.3c0,0-0.1,0-0.1-0.1c0,0.1,0,0.1,0,0.2c0.1,0,0.1,0,0.1,0V323.3z"/>
	<path class="st2" d="M179.4,320.6c0.7-0.4,1.1-0.7,1.5-0.9c1.8-1.1,3.6-2,5.4-3.2c4.5-2.9,8.3-6.6,11.3-11c1.4-2.1,2.8-4.3,4-6.5
		c3.4-6.1,7.9-11.1,13.5-15.3c2.6-1.9,5.2-3.7,7.9-5.6c2-1.4,4-2.8,5.9-4.3c2.3-1.8,4.3-3.8,6.1-6.1c2.9-3.8,4.5-8.1,5-12.8
		c0.4-3.1,0.5-6.3,0.4-9.4c-0.2-4.5-0.4-9-1.1-13.4c-0.1-0.3-0.1-0.7-0.2-1c-0.1-0.1-0.3-0.3-0.4-0.4c-0.1,0-0.4,0.2-0.4,0.3
		c-0.1,0.5-0.2,1.1-0.2,1.6c-0.4,4.5-0.8,9.1-1.6,13.6c-0.9,4.6-2.1,9.1-4,13.5c-0.6,1.4-1.4,2.5-2.6,3.5c-5,4.3-10.3,8.2-15.8,11.7
		c-5.3,3.4-10.8,6.5-16.4,9.4c-6.5,3.4-13.5,5.5-20.8,6.6c-8.3,1.3-16.7,1.6-25.1,1c-4.2-0.3-8.4-0.6-12.6-1.5
		c-7.7-1.6-13.9-5.5-19.2-11.1c-0.5-0.5-0.8-1.1-0.9-1.8c-0.4-2.7-0.8-5.3-1-8c-0.6-7.3-0.2-14.6,0.2-21.9c0-0.2,0.1-0.4,0.1-0.6
		c0.6,0,0.5,0.6,0.6,0.9c0.9,2.2,1.6,4.4,2.5,6.6c0.1,0.4,0.4,0.7,0.6,1.1c0.5-0.4,0.3-0.8,0.2-1.1c-0.9-6.5-2.3-12.8-4.2-19
		c-0.3-1-0.5-1.9-0.7-2.9c-0.7-4.2-1.7-8.3-2.9-12.3c-1.6-5.4-2.6-10.8-3.3-16.4c-0.2-2.1-0.3-4.3-0.3-6.5c1.8,0.3,3.2,1.3,4.8,1.6
		c1.7,0.3,3.3,0.6,5,0.7c1.7,0.2,3.3,0.2,5,0.3c0.1,0.5-0.3,0.8-0.6,1.1c-1,1.4-2,2.9-2.6,4.5c-0.6,1.4-1,2.9-1.1,4.5
		c-0.1,3,1.2,5.3,3.8,6.8c1.6,1,3.5,1.4,5.4,1.5c1.3,0,2.7-0.1,4-0.2c1.6-0.2,3.2-0.3,4.8,0.1c1,0.2,2,0.2,3-0.3s1.1-1.2,0.3-1.9
		c-0.5-0.4-1.1-0.7-1.7-1c-1.1-0.4-2.2-0.8-3.2-1.2c-1.1-0.5-2.1-1.1-3.1-1.8c-1.2-0.8-1.8-2-2.1-3.3c-0.2-1.3-0.2-2.7,0-4
		c0.3-2.1,0.7-4.2,1.1-6.4c0.6-3.3,1-6.6,1.1-10c0-0.2,0-0.4,0-0.6c0.8-2.7,1.9-5.2,3.8-7.2c0.5-0.6,0.9-0.6,1.6-0.2
		c0.6,0.4,1.2,0.8,1.9,1.2c5.1,3.3,10.4,6.2,16,8.4c5,1.9,10,2.9,15.4,2.8c5.2-0.1,10.3-0.6,15.3-2.1c6.5-1.9,11.9-5.5,16.7-10.2
		c1.7-1.7,3-3.6,4.1-5.7c0.7-1.4,1.5-2.9,2.1-4.3c0.3-0.6,0.6-1,1.2-1.2c0.8-0.3,1.5-0.6,2.3-0.7c1.3-0.2,2.7-0.3,4-0.3
		c1.6-0.1,3.2,0,5,0c0.1,0.4,0.3,0.8,0.4,1.2c0.4,1.8,0.7,3.6,1.5,5.2c0.1,0.2,0.2,0.4,0.3,0.6c2.6,1.3,5.5,1.7,8.4,2.4
		c0.3-0.4,0.5-0.8,0.8-1.2c1.5-2.7,3-5.4,4.6-8c1.2-2,2.7-3.9,4.5-5.4c1-0.9,2.1-1.7,3.2-2.5c0.6-0.4,1.3-0.7,2-1
		c3.8-1.5,6.7-0.5,8.7,3c1.1,1.9,1.6,4,2.1,6.1c0.8,3.9,1.1,7.9,1.1,11.8c0,4-0.1,8.1-0.6,12.1c-0.3,2.5-0.8,4.9-1.7,7.2
		c-0.6,1.6-1.4,3.1-2.5,4.3c-2.8,3.1-6.2,4.6-10.4,4.1c-0.5-0.1-1.1-0.2-1.6-0.1c-1.4,0.2-2.3-0.5-3.1-1.4c-0.6-0.6-1.2-1.2-2-2.1
		c0.1,0.6,0,0.9,0.1,1.1c0.4,0.7,0.9,1.5,1.4,2.2c1.6,2,3.4,3.6,5.6,4.9c1,0.6,2,1.1,2.9,1.8c1.3,0.9,2.7,1.8,4,2.7
		c3.3,2.3,5.5,5.7,7.5,9.1c0.1,0.3,0.2,0.7,0.1,1c-1.3,6.3-0.6,12.6-0.1,18.9c0.3,3.8,0.6,7.5,0.8,11.2c0.2,2.7-0.3,5.3-0.8,8
		c-0.1,0.6-0.4,1.1-0.9,1.5c-9.9,9-19.5,18.3-29.7,26.9c-9.4,8-19.5,14.9-30.4,20.6c-4.2,2.2-8.6,4.1-13.2,5.3
		c-2.1,0.5-4.2,0.8-6.4,1C180.2,320.7,180,320.6,179.4,320.6z M251.1,166.6c0.2-0.6,0.4-1,0.5-1.5c0.1-0.4,0-0.9-0.4-1
		c-0.3-0.1-0.7-0.1-0.9,0c-0.5,0.3-0.9,0.6-1.3,1c-4.4,3.8-7.5,8.6-9.7,13.9c-0.2,0.4-0.3,0.9-0.3,1.3c-0.2,1.7,0.1,3.3,0.8,4.9
		c0.6,1.3,1.1,2.6,1.5,3.9c0.4,1.5,0.1,2.9-0.8,4.2c-0.2,0.3-0.4,0.5-0.6,0.8c-0.2,0.3-0.4,0.5-0.6,0.8c-0.7,1.3-0.3,2.7,1,3.4
		c1.4,0.8,2.8,0.8,4.3,0.5c1.9-0.4,3.8-1,5.7-0.7c0.9,0.1,1.4-0.8,1.2-1.6c-0.1-0.3-0.3-0.6-0.4-0.9c-0.2-0.9-0.4-1.7-0.5-2.6
		c-0.1-1.6,0.1-3.2-0.3-4.8c-0.1-0.4,0-0.8,0.1-1.2c0.3-1.7-0.4-2.9-1.8-3.7c-0.6-0.4-1.3-0.8-1.8-1.1c-1.3-2.6-0.2-5,0-7.4
		c0.1-1.4,0.8-2.7,1.6-3.8c1.8,0.4,1.9,0.3,2.8,1.5c0.9,1.2,1.8,2.5,2.7,3.7c0.4,0.5,0.7,1,1.1,1.4c0.5,0.5,1.5,0.1,1.5-0.6
		c0-0.4-0.1-0.9-0.2-1.4c-0.8-2.8-2.3-5.3-4.1-7.5C252.1,167.7,251.6,167.2,251.1,166.6z M154.8,238.1c-6.5-0.1-13-0.2-19.6-0.3
		c-0.6,0-1.2,0.1-1.8,0.2c-0.6,0.1-0.9,0.6-0.9,1.2c0,0.4,0,0.8,0.2,1.2c0.9,1.8,1.9,3.4,3.2,4.9c0.9,1,1.9,0.9,2.6-0.3
		c0.1-0.2,0.2-0.5,0.4-0.7c0.4-0.8,1.1-1.2,1.9-1.2c0.6,0,1.2-0.1,1.8,0c2,0.1,4,0.2,6,0.3c7,0.3,14,0,20.9-0.5
		c2.4-0.2,4.6-0.9,6.7-2c1.3-0.7,2.6-1.3,4-2c0.2-0.1,0.4-0.2,0.5-0.3c0.1-0.2,0.3-0.5,0.2-0.7s-0.3-0.4-0.5-0.6
		c-0.1-0.1-0.4-0.1-0.6-0.1c-2.2,0.2-4.4,0.5-6.6,0.6C167.2,237.9,161.1,238,154.8,238.1z M136.8,250.3c0.2,1.3,0.6,2.4,1.6,3.3
		c4,3.4,8.5,5.3,13.8,4.9c5.5-0.5,10.8-2.1,15.8-4.4c1.7-0.8,3.1-1.9,4.5-3.1c0.2-0.2,0.2-0.6,0.3-1c-0.6,0-1.1-0.1-1.5,0
		c-2.6,0.9-5.3,1-7.9,1c-8.5,0.1-17,0.2-25.5-0.7C137.4,250.2,137.1,250.3,136.8,250.3z M147.4,212.1c0.5,0.1,1,0.3,1.4,0.4
		c1.7,0.2,3.3,0.4,4.8,1.3c0.5,0.3,1.1,0.3,1.7,0.3c0.4,0,0.8-0.3,0.9-0.7c0.1-1.1,0.1-2.1-0.9-2.9c-2.1-1.9-6.2-1.4-7.8,1
		C147.4,211.5,147.5,211.7,147.4,212.1z M143.5,200.7c-0.1,0.3-0.1,0.4-0.1,0.5c0.6,1.3,1.2,2.7,1.8,4c0.4,0.8,1.1,1.3,1.9,1.7
		c0.9,0.4,1.8-0.2,1.8-1.2c0-0.7-0.3-1.3-0.7-1.8c-1-1.3-2.3-2.4-3.8-3.1C144.1,200.7,143.8,200.7,143.5,200.7z"/>
	<path class="st3" d="M40.3,167.1c0.7-0.8,1.4-1.1,2-1.4c6-3.3,12-6.6,18-9.9c17.1-9.3,34.4-17.9,52.1-25.8
		c12.3-5.4,24.8-10.3,37.4-14.9c25.6-9.3,51.2-18.5,77.1-27c8.4-2.8,16.9-5.3,25.4-7.9c0.9-0.3,1.9-0.6,2.8-0.9
		c0.3,0.4,0.1,0.6-0.1,0.7c-1.4,1.2-2.8,2.3-4.2,3.4c-8,6-16.5,11.1-25.3,15.6c-11.1,5.8-22.5,11.1-34,16.2
		c-13.1,5.8-26.2,11.5-39.3,17.2c-13,5.7-26.4,10.3-40,14c-12.3,3.4-24.4,7.3-36.6,11.1c-10.2,3.2-20.6,6-31,8.5
		C43.2,166.5,41.9,166.7,40.3,167.1z"/>
	<path class="st3" d="M312.4,272.9c3.6,6.4,6.7,12.8,8.3,19.9c0.4,1.6,0.9,3.1,1,4.7c0,0.6,0.4,1.1,0.6,1.7
		c1.6,3.6,3.3,7.2,4.9,10.8c0.5,1,0.9,2.1,1.4,3.3c-0.6,0.2-1,0.4-1.5,0.5c-3.1,0.5-6.1,1.6-9,2.9c-7.9,3.8-15.4,8.2-22.1,13.8
		c-0.2,0.2-0.4,0.3-0.6,0.4c-0.5-0.1-0.4-0.4-0.3-0.7c0.3-0.8,0-1.6-0.3-2.3c-0.3-0.7-0.6-1.5-0.7-2.3c-1.5-7.6-3.2-15.1-4.4-22.7
		c-0.8-5.2-1.6-10.3-2.5-15.5c-1.5-8.8-3.5-17.5-5.7-26.1c-2.5-9.6-4.9-19.2-7.5-28.8c-1.9-7.3-4.1-14.5-6.7-21.5
		c-0.1-0.2-0.1-0.5-0.2-0.9c0.8,0.1,1.1,0.7,1.5,1.1c2.9,3.1,5.8,6.2,8.5,9.4c7.8,9.2,15,18.9,21.8,28.9c0.9,1.3,1.5,2.6,2.1,4.1
		c3.5,9.9,6.3,20.1,8.8,30.3c0.6,2.3,1.1,4.7,1.6,7.1c0.1,0.3,0.2,0.6,0.3,1c0.2,0.7,0.5,1,0.9,0.9c0.6-0.2,0.5-0.7,0.6-1.2
		c0-1.1,0.1-2.1,0-3.2c-0.2-4.8-0.4-9.6-0.6-14.5C312.4,273.7,312.4,273.3,312.4,272.9z"/>
	<path class="st4" d="M257.7,273.1c-0.1,0.4-0.1,0.8-0.3,1.1c-5.7,11.6-10.9,23.3-16.8,34.8c-0.8,1.6-1.5,3.2-2.1,4.8
		c-0.3,0.8-0.7,1.4-1.4,1.9c-4.8,3.8-9.4,7.9-13.8,12.3c-0.4,0.4-0.8,0.7-1.3,1c-0.4,0.2-0.9,0.3-1.4,0.5c0.2,0.5,0.4,0.9,0.6,1.4
		c0.1,0,0.3,0,0.4-0.1c0.9-0.7,2-1.1,3.1-1.4c3.4-0.9,6.8-2,10-3.6c0.2-0.1,0.5-0.2,0.7-0.2c0.1,0.1,0.1,0.2,0.1,0.2
		c-0.1,7.5-0.2,15-0.3,22.5c-0.1,2.7-0.2,5.4-0.4,8c0,0.7-0.2,1.5-0.4,2.2c-0.3,1.1-1,1.6-2.1,1.5c-0.8-0.1-1.6-0.2-2.3-0.5
		c-1.6-0.6-3.3-1.2-4.8-2c-10.1-4.6-19.8-9.9-29.3-15.6c-2.6-1.6-5.1-3.4-7.8-5c-2.6-1.4-5-3.1-7.5-4.7c-0.6-0.4-1.1-0.8-1.6-1.1
		c0.1-0.6,0.5-0.5,0.8-0.6c0.2-0.1,0.5-0.1,0.8-0.2c3-0.6,6.1-1.2,9.1-1.9c5.9-1.4,11.4-3.9,16.7-6.9c6-3.4,11.6-7.4,17-11.9
		c3.6-3,7.1-6.2,10.4-9.5c8.2-8.2,16-16.9,23-26.1C256.9,273.8,257,273.2,257.7,273.1L257.7,273.1z"/>
	<path class="st3" d="M200.7,57c-1.3-0.8-2.9-1.2-4.3-2c-1.3-0.7-2.8-1.3-4-2.4c0.5-0.5,1-1,1.5-1.4c1.6-1.4,3-2.9,4.2-4.6
		c1.8-2.5,2.9-5.2,2.7-8.2c0-0.3,0-0.5,0-0.8c0-0.1,0-0.1,0.1-0.3c0.2,0,0.5,0,0.7,0.1c5.7,2.6,11.4,5.1,16.9,8.1
		c4.4,2.4,8.5,5.1,12.3,8.4c3.9,3.5,7.1,7.5,9.5,12.1c0.1,0.2,0.2,0.5,0.3,0.7c0,0.1,0,0.1,0,0.3c-0.5,0.4-0.8-0.1-1.2-0.2
		c-6-2.2-11.9-4.4-17.9-6.6c-2.7-1-5.5-1.8-8.4-2c-0.5,0-1-0.1-1.3,0.5c1.2,1.3,2.7,2.1,4.3,2.9c1.6,0.8,3.2,1.5,4.8,2.3
		c0,0.5,0,1.1,0,1.6c-0.1,2.5-0.1,5,0.4,7.4c0.3,1.4,0.7,2.7,1.1,4.1c0.1,0.3,0.2,0.7,0.8,0.7c1-1.8,1.2-3.9,1.2-5.9
		c0-2.1-0.3-4.1-0.4-6.2c1.3,0.2,1.7,0.3,3.4,1.5c0.1,2.2,0.3,4.5,0.4,6.8c0.1,1.1,0.3,2.1,1,3c0.1,0.2,0.4,0.4,0.6,0.6
		c0.9-0.7,1.3-1.6,1.3-2.6c0-1.1-0.1-2.3-0.3-3.4c-0.1-1-0.3-2-0.4-3.1c1.4,0.3,2.4,0.9,3.6,1.6c0.1,2.9,0,5.9,1.8,8.6
		c-0.6,0.3-1,0.5-1.5,0.7c-7.3,2.7-36,11.7-38.5,12.1c-2.7-2.8-5.6-5.7-8.3-8.6c-1.7-1.8-3-3.8-4.2-5.9c-2.7-4.9-2.5-9.8,0.2-14.6
		c1-1.8,2.6-3.2,3.9-4.8c0.3-0.4,0.8-0.4,1.3-0.4c2.2,0.1,4.4,0.1,6.6,0.2c1.9,0.1,3.7,0.2,5.6,0.3C200.6,57.3,200.7,57.1,200.7,57z
		"/>
	<path class="st2" d="M220.3,149.6c-0.8,0.6-1.3,1.1-1.8,1.5c0.1,1.1,1.1,0.9,1.6,1.6c-0.3,0.1-0.5,0.3-0.7,0.4
		c-0.7,0.3-0.6,0.8-0.4,1.3c-0.4,0.8-1.6,0.7-1.7,1.8c0.2,0.1,0.4,0.4,0.6,0.4c0.6,0.2,1.2,0.3,1.7,0.5c0.5,0.1,1.1,0.2,1.2,0.8
		c0.1,0.6-0.5,0.7-0.9,1c-0.2,0.2-0.3,0.4-0.6,0.7c0.3,0.3,0.5,0.6,0.8,0.9c-0.2,0.9-0.2,0.9,0.4,2c-0.3,0.1-0.5,0.1-0.8,0.1
		c-1.5,0.1-3,0.2-4.4,0.1c-0.6,0-1.3-0.2-2-0.4c-0.6-0.2-0.9-0.7-1.1-1.3c-0.3-1.7-0.6-3.4-1.1-5.1c-1.2-4.3-3.2-8.2-6.3-11.6
		c-0.9-1-1.9-1.8-3-2.7c-0.6-0.6-1.3-1.1-2-1.6c-2.8-2.3-6-4.1-9.6-5c-3-0.7-6-0.7-9-0.4c-3.9,0.4-7.6,1.6-11.2,3.1
		c-3.8,1.7-7.4,3.9-10.7,6.3c-2.1,1.6-4.2,3.1-6.3,4.7c-1.4,1-2.8,1.9-4.2,2.8c-4.2,2.7-8.9,3.8-13.8,3.6
		c-5.3-0.1-10.5-1.3-15.6-2.9c-0.3-0.1-0.5-0.2-0.9-0.4c0.5-0.3,0.9-0.5,1.3-0.6c13.9-5.5,27.7-10.9,41.6-16.3
		c7.6-3,15-6.5,22.1-10.6c0.2-0.1,0.5-0.2,0.7-0.4c0.5-0.4,1.1-0.3,1.7-0.2c4.8,1.2,9.6,2.5,14.4,3.6c3.2,0.8,6.4,1.5,9.6,2.2
		c0.4,0.1,0.8,0.3,1.3,0.5c-1.3,1-3,0.8-4,2c0.5,0.6,1.1,0.6,1.7,0.7c0.5,0.1,1.1,0.1,1.7,0.2c-0.3,0.5-0.8,0.5-1.2,0.6
		s-0.6,0.3-1,0.5c0.9,1,2.1,0.8,3,1.4c-0.1,0.7-1.1,0.8-1.2,1.5c0.7,0.9,0.7,0.9,4.8,2.8c-0.2,0.6-0.2,1.3-0.5,1.8
		c-0.3,0.6-1.1,0.8-1.2,1.6c0.5,0.9,1.6,1,2.4,1.6c0.9,0.6,1.9,0.6,3,1.1c-0.5,0.4-0.9,0.8-1.4,1.2c-0.7,0.6-0.6,1.2,0.2,1.5
		c0.4,0.1,0.8,0.3,1.1,0.4C219.5,149.3,219.8,149.4,220.3,149.6z"/>
	<path class="st3" d="M158,52c-3.2-0.2-6.1-0.8-8.8-2.1c-1.2-0.6-2.3-1.4-3.2-2.3c-1.1-1.1-2.2-2.3-3.1-3.7
		c-2.9-4.3-5.7-8.8-7.6-13.7c-0.1-0.4-0.3-0.7-0.4-1.1c0.3-0.1,0.4-0.3,0.6-0.3c4.9-1,9.7-2,14.6-3c3.5-0.7,6.9-0.4,10.4-0.2
		c2.8,0.2,5.6,0.5,8.4,0.7c0.3,0,0.5,0.1,0.9,0.2c0,0.4,0,0.8-0.1,1.2c-1.2,5.5-3,10.7-5.5,15.7c-0.9,1.9-2.1,3.7-3.5,5.4
		C159.8,49.8,158.9,50.8,158,52z"/>
	<path class="st3" d="M105.7,259.6c0,0.6,0,1,0,1.4c-0.3,4-0.5,7.9-0.8,11.8c-0.4,5-0.9,10-1.3,15c-0.1,1.3-0.3,2.7-0.4,4
		c-0.1,3-1,5.8-1.9,8.6c-0.5,1.7-1.1,3.3-1.7,4.9c-0.1,0.3-0.3,0.6-0.6,1.2c-0.9-3-0.9-5.7-1.2-8.4c-0.3-2.7-0.1-5.5-0.8-8.2
		c-0.2,1.4-0.4,2.8-0.6,4.2c-0.6,5.9-0.5,11.8,0.2,17.7c0.1,0.7,0.1,1.3-0.2,2c-0.9,2.2-1.8,4.5-2.7,6.7c-0.4,0.1-0.4-0.2-0.5-0.4
		c-0.6-4.2-1.4-8.3-1.9-12.5c-0.5-3.7-0.6-7.4-1-11c-0.1-0.7-0.1-1.5-0.1-2.2c-0.7-5.5,0.1-10.8,1.5-16.1c0.9-3.2,2.3-6.1,4.3-8.8
		c2.6-3.5,5.7-6.6,8.9-9.6C105.1,259.8,105.3,259.7,105.7,259.6z"/>
	<path class="st5" d="M168.4,333.9c1.7,0,3.3,0.4,4.8,1.3c2.3,1.5,4.5,3.2,6.4,5.2c1.8,1.9,1.8,3.1,0,5.1c-0.4,0.4-0.7,0.8-1.1,1.1
		c-2.5,2.1-5.2,4.1-7.9,5.8c-0.4,0.2-0.8,0.4-1.3,0.6c-3.1,1.1-6.3,1.9-9.6,2.1c-1.1,0.1-2.3,0-3.4-0.2c-1.7-0.3-2.8-1.3-3.3-2.9
		c-0.2-0.4-0.3-0.9-0.4-1.3c-0.4-3-0.1-5.9,1.2-8.6c0.6-1.2,1.3-2.2,2.3-3.1C159.6,335.9,163.8,334.3,168.4,333.9z"/>
	<path class="st3" d="M430.2,310.6c-3.9-1.4-7.8-2.8-11.7-4.2c-3.8-1.4-7.7-2.7-11.6-4c-4-1.3-7.9-2.5-12-3.6c-4-1.1-8-2.1-12.1-3.1
		c-4-1-8-1.9-12-2.7c-4.1-0.9-8.2-1.7-12.2-2.5s-8.1-1.4-12.1-2.1c-4.1-0.7-8.2-1.2-12.3-1.8c0-0.6,0.4-0.5,0.6-0.6
		c5.1-0.8,10.3-0.9,15.5-0.6c7.2,0.4,14.3,1.6,21.3,2.9c7.4,1.4,14.7,2.9,22,5c4.2,1.2,8.3,2.6,12.5,3.9c5.3,1.8,10.3,4.2,15.1,7.1
		c3.1,1.9,6.1,3.9,9.1,5.9C430.3,310.4,430.2,310.5,430.2,310.6z"/>
	<path class="st3" d="M469.3,344.8c0.1,2-0.8,3.6-2.7,4.7c-1.8,1.1-3.8,1.6-6,1.6c-2.3,0-4-1-5-3c-0.3-0.6-0.6-1.2-0.8-1.8
		c-0.2-0.4-0.3-0.9-0.4-1.3c-1-5-3.1-9.7-5.4-14.2c-0.7-1.4-1.3-2.9-1.9-4.4c-0.2-0.6-0.3-1.3-0.4-2c-0.1-0.8,0.4-1.4,1.2-1.7
		c0.9-0.4,1.8-0.4,2.8-0.2c1.1,0.2,2.1,0.5,3.1,0.9c2.1,0.8,4.1,2,5.9,3.4c2.7,2.2,4.9,4.8,6.7,7.7
		C467.7,336.8,469.3,341.9,469.3,344.8z"/>
	<path class="st5" d="M174.5,377.2c-4.7-0.2-9-0.4-13.4-0.5c-4.3-0.1-8.7-0.1-13.1-0.1c0-0.4,0-0.6,0.1-0.9c1.1-3.7,2.1-7.3,3.3-11
		c0.3-1,0.7-1.9,1.2-2.8c0.6-1.2,1.6-1.8,2.9-1.8c0.9,0,1.7,0.1,2.6,0.1c2.1,0.1,4.3,0.2,6.4-0.1c1.7-0.2,3.3-0.8,4.9-1.5
		c0.3,0.4,0.5,0.7,0.7,1.1c1.1,2.5,1.8,5,2.4,7.7C173.3,370.8,173.9,373.9,174.5,377.2z"/>
	<path class="st4" d="M149.3,312.1c0.5,0.5,0.9,0.9,1.2,1.3c2.1,2.6,4.1,5.1,6.2,7.7c1.8,2.3,3.6,4.5,5.7,6.5
		c0.2,0.2,0.4,0.5,0.6,0.7c0,0.2,0,0.3,0,0.3l-0.1,0.1c-9.1,6-17,13.5-25.4,20.4c0,0-0.1,0-0.3,0
		C140.4,336.5,144.5,324.3,149.3,312.1z"/>
	<path class="st6" d="M236.3,152.7c0.8,0.4,1.3,0.6,1.8,0.8c0.4,0.2,0.4,0.7,0.1,1c-1.1,0.9-2.2,1.5-3.6,1.5c-1.1,0-2.1-0.2-3.2-0.4
		c-0.7-0.1-1.5,0-2.1-0.7c0.2-0.2,0.4-0.5,0.7-0.6c0.8-0.4,1.6-0.8,2.6-1.2c-0.5-0.5-1-0.3-1.4-0.4c-0.4-0.1-0.8-0.1-1.2-0.2
		c-0.4-0.1-0.9-0.2-1.5-0.4c0.2-0.4,0.3-0.7,0.5-0.9c0.9-0.6,1.8-1.2,2.7-1.7c0.3-0.2,0.6-0.2,0.7-0.7c-0.7,0-1.3,0-2,0
		c-1.6,0.1-3.1-0.3-4.5-0.9c-0.2-0.1-0.5-0.2-0.7-0.4c-0.5-0.3-0.5-0.9,0-1.1c0.6-0.3,1.3-0.6,2-0.9c-0.3-0.7-1.4-0.6-1.5-1.6
		c0.4-0.8,1.4-1,2.1-1.8c-0.8-0.5-1.5-0.9-2.2-1.4c-0.8-0.6-1.3-1.2-0.6-2.3c-0.9-0.4-1.7-0.8-2.4-1.2c-0.5-0.3-0.5-0.8,0-1.1
		c0.3-0.2,0.7-0.4,1.1-0.6c-0.8-0.3-1.4-0.5-2-0.8c-0.5-0.2-1-0.4-1.5-0.6c-0.9-0.4-1.3-0.8-1.1-1.2c0.3-0.6,0.9-0.5,1.4-0.5
		c3.4-0.4,6.7-0.1,10,0.7c1.9,0.5,3.8,0.9,5.7,1.4c0.5,0.1,0.9,0.4,1.4,0.6c-0.1,0.2-0.1,0.4-0.2,0.4c-1.8,0.2-3.5,0.4-5.4,0.6
		c0.7,0.7,1.6,0.7,2.3,1c0.6,0.3,1.4,0.3,2,1c-1,0.6-2.2,0.1-3.2,0.8c1.3,0.7,2.7,0.8,3.9,1.6c-0.3,0.3-0.5,0.5-0.7,0.6
		c-0.6,0.1-1.3,0.2-1.9,0.4c0,0.5,0.3,0.5,0.6,0.6c1.7,0.4,3.4,0.8,5.1,1.2c0.2,0.1,0.5,0.2,0.7,0.4c0.1,0.1,0.1,0.4,0,0.5
		c-0.2,0.2-0.5,0.3-0.7,0.3c-1.3,0.3-2.6,0.5-3.9,0.8c-0.7,0.1-1.4,0.3-2.3,0.5c1.4,0.9,3,0.6,4.2,1.5c-0.1,0.7-0.7,0.6-1,1
		c0.1,0.1,0.1,0.2,0.2,0.2c1,0.4,2,0.8,2.9,1.3c0.6,0.3,0.6,0.9,0,1.2c-0.5,0.3-1,0.5-1.4,0.7C237.9,152.1,237.3,152.3,236.3,152.7z
		"/>
	<path class="st4" d="M179,168c-0.9-0.4-1.7-0.9-2.5-1.3c-0.9,0.8-0.6,1.6-0.3,2.3c0.2,0.7,0.5,1.4,0.8,2.1
		c-0.1,0.4-0.5,0.4-0.8,0.4c-2.2-0.1-4.3-0.4-6.2-1.6c-2.2-1.3-3.3-3.6-2.8-6.2c0.3-1.6,1.1-2.8,2.4-3.5c0.8-0.4,1.6-0.8,2.4-1
		c2.4-0.6,4.9-1,7.4-0.9c0.2,0,0.4,0.1,0.5,0.1C178.3,162.9,177.7,162,179,168z"/>
	<path class="st3" d="M44.5,337.1c-0.7-0.2-0.8-0.7-0.8-1.2c-0.1-1.2,0.1-2.4,0.5-3.5c2-5.6,5.4-10,10.5-13c2.8-1.6,5.9-2.5,9.1-3.2
		c0.2,0,0.4,0,0.8,0.1c-0.5,0.4-0.8,0.7-1.1,1.1c-3.4,3.3-6.8,6.6-10.1,10.1c-2.2,2.3-4.2,4.7-6.2,7.1c-0.5,0.6-1,1.2-1.6,1.8
		C45.2,336.7,44.8,336.9,44.5,337.1z"/>
	<path class="st3" d="M202.7,170.4c0,0.6,0.2,1,0.1,1.3c-0.2,0.8-0.4,1.6-0.8,2.3c-1.4,3-3.6,5.5-6.3,7.4c-1.5,1.1-3.8,1.8-5.7,1.7
		c0.1-0.8,0.9-0.9,1.2-1.5c0-0.4-0.2-0.9-0.1-1.3c0.1-0.5,0.4-0.9,0.1-1.5c-0.2-0.3,0.1-0.9,0.1-1.3c-0.2-0.2-0.4-0.4-0.6-0.5
		c0.1-0.6,0.7-1,0.4-1.7c-0.2-0.5,0.1-0.9,0.4-1.3c1.4-1.3,2.8-2.6,4.2-4c1.3,0.4,2.7,0.4,4,0.4c0.3,0,0.6-0.1,0.8,0.1
		C201.3,171.3,201.8,170.7,202.7,170.4z"/>
	<path class="st4" d="M120.9,168c-2.5,4.4-3.3,8.2,0.2,13.5c-2.1,0.2-4.7-0.5-6.1-1.8c-0.9-0.8-1.3-1.7-1.4-2.8c0-0.6,0-1.2,0.1-1.8
		C114.3,172.1,117.4,169,120.9,168z"/>
	<path class="st3" d="M236.2,71.3c1.3,0.1,2.1,0.8,3.1,1.2c0.2,1.4,0.5,2.8,0.7,4.2c-0.4,0.6-1.1,0.6-1.7,0.9
		c-0.6,0.2-1.3,0.4-2,0.7c-0.1-1.3,0.3-2.4,0.3-3.5C236.5,73.6,236.3,72.5,236.2,71.3z"/>
	<path class="st4" d="M182.3,161.5c0-1.4,0.8-2.4,1.9-2.4c1.1,0,2.2,1.1,2.2,2.4c0,1.1-0.9,2-2.1,2.1
		C183.2,163.5,182.3,162.6,182.3,161.5z"/>
	<path class="st4" d="M125.4,171.9c-0.9-0.1-1.5-0.8-1.5-1.6s0.8-1.4,1.7-1.3c0.8,0.1,1.4,0.8,1.3,1.7
		C126.9,171.4,126.1,172,125.4,171.9z"/>
	<path class="st3" d="M242.2,73.8c1.8,0.1,1.8,0.1,2.1,1.5c-0.6,0.2-1.1,0.4-1.7,0.7C242.1,75.2,242.3,74.6,242.2,73.8z"/>
	<path class="st4" d="M257.7,273.2c-0.1-0.2-0.1-0.5,0.2-0.4C258.1,272.9,258,273.2,257.7,273.2
		C257.7,273.1,257.7,273.2,257.7,273.2z"/>
	<path class="st4" d="M332.9,323.3v0.1h-0.1c0-0.1,0-0.1,0-0.2C332.8,323.2,332.8,323.2,332.9,323.3z"/>
	<path class="st1" d="M251.1,166.6c0.5,0.6,1,1.1,1.4,1.6c1.8,2.3,3.3,4.7,4.1,7.5c0.1,0.4,0.2,0.9,0.2,1.4c-0.1,0.7-1,1.1-1.5,0.6
		c-0.4-0.4-0.8-0.9-1.1-1.4c-0.9-1.2-1.8-2.5-2.7-3.7c-0.9-1.1-0.9-1.1-2.8-1.5c-0.8,1.1-1.5,2.4-1.6,3.8c-0.2,2.4-1.3,4.9,0,7.4
		c0.5,0.3,1.1,0.7,1.8,1.1c1.4,0.9,2.1,2,1.8,3.7c-0.1,0.4-0.2,0.8-0.1,1.2c0.4,1.6,0.2,3.2,0.3,4.8c0,0.9,0.3,1.7,0.5,2.6
		c0.1,0.3,0.3,0.6,0.4,0.9c0.2,0.9-0.4,1.8-1.2,1.6c-2-0.3-3.8,0.3-5.7,0.7c-1.5,0.3-3,0.3-4.3-0.5c-1.3-0.7-1.7-2.1-1-3.4
		c0.1-0.3,0.4-0.6,0.6-0.8c0.2-0.3,0.4-0.5,0.6-0.8c0.9-1.3,1.3-2.7,0.8-4.2c-0.4-1.3-0.9-2.7-1.5-3.9c-0.7-1.6-1-3.2-0.8-4.9
		c0.1-0.5,0.1-0.9,0.3-1.3c2.2-5.3,5.3-10.1,9.7-13.9c0.4-0.4,0.8-0.7,1.3-1c0.2-0.1,0.7-0.1,0.9,0c0.4,0.2,0.5,0.6,0.4,1
		C251.5,165.6,251.3,166.1,251.1,166.6z"/>
	<path class="st1" d="M154.8,238.1c6.2-0.1,12.3-0.2,18.4-0.4c2.2-0.1,4.4-0.4,6.6-0.6c0.2,0,0.4,0,0.6,0.1c0.2,0.1,0.5,0.3,0.5,0.6
		c0.1,0.2-0.1,0.5-0.2,0.7c-0.1,0.1-0.3,0.2-0.5,0.3c-1.3,0.6-2.7,1.3-4,2c-2.1,1.1-4.3,1.8-6.7,2c-7,0.5-13.9,0.8-20.9,0.5
		c-2-0.1-4-0.2-6-0.3c-0.6,0-1.2,0-1.8,0c-0.9,0.1-1.5,0.5-1.9,1.2c-0.1,0.2-0.2,0.5-0.4,0.7c-0.7,1.2-1.7,1.3-2.6,0.3
		c-1.3-1.4-2.3-3.1-3.2-4.9c-0.2-0.4-0.2-0.8-0.2-1.2c0-0.6,0.3-1.1,0.9-1.2c0.6-0.1,1.2-0.2,1.8-0.2
		C141.8,237.9,148.4,238,154.8,238.1z"/>
	<path class="st1" d="M136.8,250.3c0.4,0,0.7,0,1,0c8.5,0.9,17,0.8,25.5,0.7c2.7,0,5.4-0.2,7.9-1c0.4-0.1,0.9,0,1.5,0
		c-0.1,0.5-0.1,0.9-0.3,1c-1.4,1.2-2.8,2.3-4.5,3.1c-5,2.3-10.3,3.9-15.8,4.4c-5.3,0.5-9.8-1.4-13.8-4.9
		C137.3,252.7,137,251.6,136.8,250.3z"/>
	<path class="st1" d="M147.4,212.1c0.1-0.4,0-0.6,0.1-0.6c1.6-2.4,5.7-2.9,7.8-1c1,0.8,1,1.8,0.9,2.9c0,0.4-0.4,0.7-0.9,0.7
		c-0.6,0-1.3,0-1.7-0.3c-1.5-0.9-3.1-1.1-4.8-1.3C148.3,212.4,147.9,212.2,147.4,212.1z"/>
	<path class="st1" d="M143.5,200.7c0.3,0,0.6,0,0.9,0.1c1.5,0.7,2.8,1.8,3.8,3.1c0.4,0.5,0.7,1.1,0.7,1.8c0,1-1,1.6-1.8,1.2
		c-0.8-0.4-1.5-0.9-1.9-1.7c-0.6-1.3-1.2-2.7-1.8-4C143.3,201.1,143.4,200.9,143.5,200.7z"/>
</g>
<rect x="21.3" y="53" class="st7" width="418.9" height="311.2"/>
<g>
	<g>
		<path d="M605.3,156.6c-3.6,3.6-1.9,7.9,3,7.9c3.8,0,6.8-3.1,9.3-7.5l14.9-26.1c-2.4,1.3-5.3,2-8.1,2c-1.4,0-4.5-0.2-5.8-0.2
			c-4.5,0-7.6,2.7-7.6,5.5c0,1.6,0.7,3.1,2.5,4.1l-2.6,3.2c-2.8-1.5-4.2-4.1-4.2-6.8c0-5.8,5.3-10,12.9-10c1.1,0,4.1,0.1,5.2,0.1
			c5.6,0,10.3-2.6,10.3-2.6l2.7,4.6h-0.1L622.2,158c-4.4,7.7-9.3,10.6-14.5,10.6c-7.9,0-12-8.7-5.2-14.7L605.3,156.6z"/>
		<path d="M655.8,153.1c0.7,0.3,1.6,1.1,2,1.8c-4.3,5-9.3,9.7-13.7,9.7c-4.2,0-5.8-3.6-3.6-7.5l6.8-11.9c2.3-3.9-1.3-5.2-9.4,4.9
			l-8,13.9h-5.3l20.9-36.3h5.2l-8.4,14.6c2.6-2.7,5-4,7.3-4c2.9,0,5.1,2.9,2.8,6.9l-7.6,13.3c-1.2,2.1-0.6,2.9,0.6,2.9
			c2.3,0,6-3.5,9.8-7.9L655.8,153.1z"/>
		<path d="M660.5,154.2l-0.5,0.9c-2.4,4.2-0.5,6.3,2.7,6.3c3.7,0,8.5-3.5,12.3-7.9l0.4-0.4c0.7,0.3,1.6,1.1,2,1.8
			c-4.3,5-10.2,9.7-16.2,9.7c-6.2,0-9-5.1-5.8-10.7l5.5-9.4c2.2-3.8,5.6-6.1,9.8-6.1c4.3,0,7,3.6,4.2,8.5l-0.8,1.3
			C670.2,155,663.9,155.6,660.5,154.2z M662,151.6c2,0.7,5.3,0.8,7.9-3.5l0.8-1.3c3.1-5.4-2.2-6.3-5.2-1.1L662,151.6z"/>
	</g>
</g>
<g>
	<g>
		<polygon class="st8" points="1002.6,126.4 823.3,133.9 824.7,187.3 882.9,184.6 880.7,350 933.8,351.4 936.3,182.7 1005,179.5 		
			"/>
		<path class="st8" d="M596.8,203.5c-6-3.7-12.6-6.3-19.9-8c-7.3-1.6-14.5-2.5-21.7-2.5c-6.1,0-12.8,0.2-20,0.7
			c-7.2,0.4-14.5,1.2-21.8,2.2c-7.3,1.1-14.5,2.4-21.5,4.2c-7,1.7-13.4,3.9-19.2,6.6l5.4,41.6c2.5-0.7,5-1.5,7.3-2.2
			c2.3-0.7,4.8-1.5,7.3-2.2l1.6,88.4l40.5,0.4v-53.5l8.1,18.2c8.1,0,16.5-1.3,25.2-4c8.7-2.7,16.7-6.6,23.9-11.6
			c7.3-5,13.3-11.1,18-18.3c4.7-7.2,7.1-15.3,7.1-24.3c0-8.4-1.9-15.5-5.6-21.4C607.7,211.9,602.8,207.1,596.8,203.5z M565.7,254.3
			c-2.6,2.5-5.8,4.6-9.4,6.3c-3.7,1.7-7.5,3-11.5,3.9c-4,0.9-7.3,1.6-10,2v-29.7c5.2-0.4,10.5-0.7,15.7-0.7c1.5,0,3.3,0.1,5.5,0.3
			c2.2,0.2,4.3,0.6,6.3,1.2c2,0.6,3.7,1.5,5.2,2.7c1.4,1.2,2.1,2.8,2.1,4.9C569.6,248.8,568.3,251.8,565.7,254.3z"/>
		<path class="st8" d="M669.2,201.5l-41.2-1.6c-0.8,12.7-1.3,25.4-1.8,37.9c-0.4,12.5-0.7,25.2-0.7,37.9c0,9.3,0.1,18.5,0.3,27.5
			c0.2,9.1,0.6,18.3,1.2,27.5l40-1.3c-0.4-8.8-0.7-17.6-0.8-26.3c-0.1-8.7-0.1-17.5-0.1-26.3c0-12.7,0.3-25.3,0.8-37.8
			C667.6,226.7,668.3,214.1,669.2,201.5z"/>
		<path class="st8" d="M807.1,264.2c6.1-8.2,9.2-18.1,9.2-29.8c0-7.8-2.1-14.3-6.2-19.5s-9.3-9.3-15.4-12.4
			c-6.1-3.1-12.8-5.2-20-6.5c-7.2-1.3-13.9-1.9-20-1.9c-13.2,0-26.5,1.1-39.8,3.1c-13.3,2.1-26.5,4.6-39.4,7.6l5.6,42.3
			c2.1-0.6,4.2-1.1,6.3-1.6c2.1-0.4,4.2-1,6.3-1.6v87.7h41.6v-38.5l33.3,47.2l38.7-20.9l-25-36C792.7,278.8,800.9,272.3,807.1,264.2
			z M765.5,254.1c-2.7,2.3-5.9,4.2-9.6,5.7c-3.7,1.5-7.4,2.7-11.2,3.5c-3.8,0.8-6.9,1.4-9.3,1.7v-27.7c3.9-0.4,7.9-0.7,11.9-0.7
			c1.3,0,3.3,0.1,5.7,0.3c2.5,0.2,4.9,0.7,7.4,1.3c2.5,0.7,4.6,1.6,6.4,2.8c1.8,1.2,2.7,2.8,2.7,4.7
			C769.5,249,768.2,251.7,765.5,254.1z"/>
		<path class="st8" d="M868,201.5l-41.2-1.6c-0.8,12.7-1.4,25.4-1.8,37.9c-0.5,12.5-0.7,25.2-0.7,37.9c0,9.3,0.1,18.5,0.3,27.5
			c0.2,9.1,0.6,18.3,1.2,27.5l40-1.3c-0.4-8.8-0.7-17.6-0.8-26.3c-0.1-8.7-0.1-17.5-0.1-26.3c0-12.7,0.3-25.3,0.8-37.8
			C866.4,226.7,867.1,214.1,868,201.5z"/>
		<path class="st8" d="M425.9,222.7c-10-3.4-29.8-7.5-58.9-12.4c-19.5-3.7-30.2-7.2-31.8-11.2c3.3-3.5,6.2-6.1,8.4-7.4
			c30.1-16.4,65.4-21.2,105.5-14.4c9.3,1.6,18.8,3.9,28.8,7.3l14.3-51.8c-12.3-3.8-24.1-6.5-35.1-8.4c-23.5-4-46.3-4.5-68.4-1.1
			c-25.5,3.5-47.7,9.9-66.1,19.4c-25,12.4-39.4,28.8-42.9,49.6c-6.3,37.1,23,61.2,87.6,72.3c21.5,3.7,32.8,5.6,33.8,5.8
			c17.7,4.1,26.7,7.6,27,11.4c-8.8,9.7-24.7,16.6-47.4,19.9c-17.1,2.5-34.9,2.9-53.5,1.4l-3.6,53.3c31.2,2.9,58.8,1.2,82.4-5.4
			c46.6-13.2,72.4-34.4,77.4-63.5c2.2-12.9-0.8-25-8.9-36C465.4,239.4,449.3,229.8,425.9,222.7z"/>
	</g>
	<g>
		<polygon class="st8" points="993.1,118.4 813.8,126 815.1,179.3 873.3,176.7 871.1,342 924.3,343.4 926.8,174.7 995.5,171.5 		"/>
		<path class="st8" d="M587.3,195.5c-6-3.7-12.6-6.3-19.9-8c-7.3-1.6-14.5-2.5-21.7-2.5c-6.1,0-12.8,0.2-20,0.7
			c-7.2,0.4-14.5,1.2-21.8,2.2c-7.3,1.1-14.5,2.4-21.5,4.2c-7,1.7-13.4,3.9-19.2,6.6l5.4,41.6c2.5-0.7,5-1.5,7.3-2.2
			c2.3-0.7,4.8-1.5,7.3-2.2l1.6,88.4l40.5,0.4v-53.5l8.1,18.2c8.1,0,16.5-1.3,25.2-4c8.7-2.7,16.7-6.6,23.9-11.6
			c7.3-5,13.3-11.1,18-18.3c4.7-7.2,7.1-15.3,7.1-24.3c0-8.4-1.9-15.5-5.6-21.4C598.2,204,593.3,199.2,587.3,195.5z M556.1,246.3
			c-2.6,2.5-5.8,4.6-9.4,6.3c-3.7,1.7-7.5,3-11.5,3.9c-4,0.9-7.3,1.6-10,2v-29.7c5.2-0.4,10.5-0.7,15.7-0.7c1.5,0,3.3,0.1,5.5,0.3
			c2.2,0.2,4.3,0.6,6.3,1.2c2,0.6,3.7,1.5,5.2,2.7c1.4,1.2,2.1,2.8,2.1,4.9C560.1,240.9,558.8,243.9,556.1,246.3z"/>
		<path class="st8" d="M659.7,193.6l-41.2-1.6c-0.8,12.7-1.3,25.4-1.8,37.9c-0.4,12.5-0.7,25.2-0.7,37.9c0,9.3,0.1,18.5,0.3,27.5
			c0.2,9.1,0.6,18.3,1.2,27.5l40-1.3c-0.4-8.8-0.7-17.6-0.8-26.3c-0.1-8.7-0.1-17.5-0.1-26.3c0-12.7,0.3-25.3,0.8-37.8
			C658.1,218.7,658.8,206.2,659.7,193.6z"/>
		<path class="st8" d="M797.6,256.2c6.1-8.2,9.2-18.1,9.2-29.8c0-7.8-2.1-14.3-6.2-19.5s-9.3-9.3-15.4-12.4
			c-6.1-3.1-12.8-5.2-20-6.5c-7.2-1.3-13.9-1.9-20-1.9c-13.2,0-26.5,1.1-39.8,3.1c-13.3,2.1-26.5,4.6-39.4,7.6l5.6,42.3
			c2.1-0.6,4.2-1.1,6.3-1.6c2.1-0.4,4.2-1,6.3-1.6v87.7h41.6v-38.5l33.3,47.2l38.7-20.9l-25-36C783.2,270.9,791.4,264.4,797.6,256.2
			z M755.9,246.1c-2.7,2.3-5.9,4.2-9.6,5.7c-3.7,1.5-7.4,2.7-11.2,3.5c-3.8,0.8-6.9,1.4-9.3,1.7v-27.7c3.9-0.4,7.9-0.7,11.9-0.7
			c1.3,0,3.3,0.1,5.7,0.3c2.5,0.2,4.9,0.7,7.4,1.3c2.5,0.7,4.6,1.6,6.4,2.8c1.8,1.2,2.7,2.8,2.7,4.7
			C760,241.1,758.6,243.8,755.9,246.1z"/>
		<path class="st8" d="M858.5,193.6l-41.2-1.6c-0.8,12.7-1.4,25.4-1.8,37.9c-0.5,12.5-0.7,25.2-0.7,37.9c0,9.3,0.1,18.5,0.3,27.5
			c0.2,9.1,0.6,18.3,1.2,27.5l40-1.3c-0.4-8.8-0.7-17.6-0.8-26.3c-0.1-8.7-0.1-17.5-0.1-26.3c0-12.7,0.3-25.3,0.8-37.8
			C856.9,218.7,857.6,206.2,858.5,193.6z"/>
		<path class="st8" d="M416.4,214.8c-10-3.4-29.8-7.5-58.9-12.4c-19.5-3.7-30.2-7.2-31.8-11.2c3.3-3.5,6.2-6.1,8.4-7.4
			c30.1-16.4,65.4-21.2,105.5-14.4c9.3,1.6,18.8,3.9,28.8,7.3l14.3-51.8c-12.3-3.8-24.1-6.5-35.1-8.4c-23.5-4-46.3-4.5-68.4-1.1
			c-25.5,3.5-47.7,9.9-66.1,19.4c-25,12.4-39.4,28.8-42.9,49.6c-6.3,37.1,23,61.2,87.6,72.3c21.5,3.7,32.8,5.6,33.8,5.8
			c17.7,4.1,26.7,7.6,27,11.4c-8.8,9.7-24.7,16.6-47.4,19.9c-17.1,2.5-34.9,2.9-53.5,1.4l-3.6,53.3c31.2,2.9,58.8,1.2,82.4-5.4
			c46.6-13.2,72.4-34.4,77.4-63.5c2.2-12.9-0.8-25-8.9-36C455.9,231.4,439.8,221.8,416.4,214.8z"/>
	</g>
	<g>
		<polygon class="st9" points="993.1,118.5 813.8,126.1 815.1,179.4 873.3,176.8 871.1,342.1 924.3,343.5 926.8,174.8 995.5,171.6 
					"/>
		<path class="st9" d="M587.3,195.6c-6-3.7-12.6-6.3-19.9-8c-7.3-1.6-14.5-2.5-21.7-2.5c-6.1,0-12.8,0.2-20,0.7
			c-7.2,0.4-14.5,1.2-21.8,2.2c-7.3,1-14.5,2.4-21.5,4.2c-7,1.7-13.4,3.9-19.2,6.6l5.4,41.6c2.5-0.7,5-1.5,7.3-2.2
			c2.3-0.7,4.8-1.5,7.3-2.2l1.6,88.4l40.5,0.4v-53.5l8.1,18.2c8.1,0,16.5-1.3,25.2-4c8.7-2.7,16.7-6.6,23.9-11.6
			c7.3-5,13.3-11.1,18-18.3c4.7-7.2,7.1-15.3,7.1-24.3c0-8.4-1.9-15.5-5.6-21.4C598.2,204,593.3,199.3,587.3,195.6z M556.1,246.4
			c-2.6,2.5-5.8,4.6-9.4,6.3c-3.7,1.7-7.5,3-11.5,3.9c-4,0.9-7.3,1.6-10,2V229c5.2-0.4,10.5-0.7,15.7-0.7c1.5,0,3.3,0.1,5.5,0.3
			c2.2,0.2,4.3,0.6,6.3,1.2c2,0.6,3.7,1.5,5.2,2.7c1.4,1.2,2.1,2.8,2.1,4.9C560.1,241,558.8,244,556.1,246.4z"/>
		<path class="st9" d="M659.7,193.7l-41.2-1.6c-0.8,12.7-1.3,25.4-1.8,37.9c-0.4,12.5-0.7,25.2-0.7,37.9c0,9.3,0.1,18.5,0.3,27.5
			c0.2,9.1,0.6,18.3,1.2,27.5l40-1.3c-0.4-8.8-0.7-17.6-0.8-26.3c-0.1-8.7-0.1-17.5-0.1-26.3c0-12.7,0.3-25.3,0.8-37.8
			C658.1,218.8,658.8,206.3,659.7,193.7z"/>
		<path class="st9" d="M797.6,256.3c6.1-8.2,9.2-18.1,9.2-29.8c0-7.8-2.1-14.3-6.2-19.5s-9.3-9.3-15.4-12.4
			c-6.1-3.1-12.8-5.2-20-6.5c-7.2-1.3-13.9-1.9-20-1.9c-13.2,0-26.5,1.1-39.8,3.1c-13.3,2.1-26.5,4.6-39.4,7.6l5.6,42.3
			c2.1-0.6,4.2-1.1,6.3-1.6c2.1-0.4,4.2-1,6.3-1.6v87.7h41.6v-38.5l33.3,47.2l38.7-20.9l-25-36C783.2,271,791.4,264.5,797.6,256.3z
			 M755.9,246.2c-2.7,2.3-5.9,4.2-9.6,5.7c-3.7,1.5-7.4,2.7-11.2,3.5c-3.8,0.8-6.9,1.4-9.3,1.7v-27.7c3.9-0.4,7.9-0.7,11.9-0.7
			c1.3,0,3.3,0.1,5.7,0.3c2.5,0.2,4.9,0.7,7.4,1.3c2.5,0.7,4.6,1.6,6.4,2.8c1.8,1.2,2.7,2.8,2.7,4.7
			C760,241.1,758.6,243.9,755.9,246.2z"/>
		<path class="st9" d="M858.5,193.7l-41.2-1.6c-0.8,12.7-1.4,25.4-1.8,37.9c-0.5,12.5-0.7,25.2-0.7,37.9c0,9.3,0.1,18.5,0.3,27.5
			c0.2,9.1,0.6,18.3,1.2,27.5l40-1.3c-0.4-8.8-0.7-17.6-0.8-26.3c-0.1-8.7-0.1-17.5-0.1-26.3c0-12.7,0.3-25.3,0.8-37.8
			C856.9,218.8,857.6,206.3,858.5,193.7z"/>
		<path class="st9" d="M416.4,214.9c-10-3.4-29.8-7.5-58.9-12.4c-19.5-3.7-30.2-7.2-31.8-11.2c3.3-3.5,6.2-6.1,8.4-7.4
			c30.1-16.4,65.4-21.2,105.5-14.4c9.3,1.6,18.8,3.9,28.8,7.3l14.3-51.8c-12.3-3.8-24.1-6.5-35.1-8.4c-23.5-4-46.3-4.5-68.4-1.1
			c-25.5,3.5-47.7,9.9-66.1,19.4c-25,12.4-39.4,28.8-42.9,49.6c-6.3,37.1,23,61.2,87.6,72.3c21.5,3.7,32.8,5.6,33.8,5.8
			c17.7,4.1,26.7,7.6,27,11.4c-8.8,9.7-24.7,16.6-47.4,19.9c-17.1,2.5-34.9,2.9-53.5,1.4l-3.6,53.3c31.2,2.9,58.8,1.2,82.4-5.4
			c46.6-13.2,72.4-34.4,77.4-63.5c2.2-12.9-0.8-25-8.9-36C455.9,231.5,439.8,221.9,416.4,214.9z"/>
	</g>
	<polygon points="482.5,236.3 495.8,232 483.1,244.5 	"/>
	<polygon points="682.8,237 696.1,232.7 683.4,245.3 	"/>
	<polygon points="872.3,177.2 885.6,176.1 872.9,183.8 	"/>
</g>
</svg>
